<svg id="Capa_1" data-name="Capa 1" xmlns="http://www.w3.org/2000/svg" viewBox="0 0 447.03 512"><defs><style>.cls-1{fill:#fc1a40;}.cls-2{fill:#c60034;}.cls-3{fill:#fe9923;}.cls-4{fill:#fe8821;}.cls-5{fill:#ff3e75;}.cls-6{fill:#fcbf29;}</style></defs><path class="cls-1" d="M415.53,259.6l-48.6-17.7a14,14,0,0,0-5.1-.9H50.43a14.85,14.85,0,0,0-15,15V467a44.94,44.94,0,0,0,45,45h300a44.93,44.93,0,0,0,45-45V273.7A14.88,14.88,0,0,0,415.53,259.6Z" transform="translate(-32.48 0)"/><path class="cls-2" d="M425.43,273.7V467a44.93,44.93,0,0,1-45,45h-150V241h131.4a14,14,0,0,1,5.1.9l48.6,17.7A14.88,14.88,0,0,1,425.43,273.7Z" transform="translate(-32.48 0)"/><path class="cls-3" d="M420,97.79c-5.1-20.7-20.4-36.9-41.11-43.5a59.78,59.78,0,0,0-58.2,12.6l-34.8,30.6L279,51.59a60.77,60.77,0,0,0-36.9-47.1,57,57,0,0,0-11.7-3.3A59.66,59.66,0,0,0,183,11.69a60.56,60.56,0,0,0,15,106.2l32.4,11.7,39.9,14.7h.3l69.3,25.5a64.3,64.3,0,0,0,21,3.6A61.13,61.13,0,0,0,420,97.79Z" transform="translate(-32.48 0)"/><path class="cls-4" d="M401.43,157.79a60.62,60.62,0,0,1-40.5,15.6,64.45,64.45,0,0,1-21-3.6l-69.29-25.5h-.3l-39.9-14.7V1.19a57,57,0,0,1,11.7,3.3A60.76,60.76,0,0,1,279,51.59l6.9,45.9,34.8-30.6a59.77,59.77,0,0,1,58.2-12.6c20.7,6.6,36,22.8,41.1,43.5A60.94,60.94,0,0,1,401.43,157.79Z" transform="translate(-32.48 0)"/><path class="cls-5" d="M476.73,234.1l-20.4,56.4a15.19,15.19,0,0,1-14.1,9.6,14,14,0,0,1-5.1-.9L282,242.8l-14.1-46.5-37.5,8.4-33,7.5L42.34,155.8a15.27,15.27,0,0,1-9-19.2L54,80.2a44.72,44.72,0,0,1,57.6-27l118.8,43.2,8.1,3s32.4,58.8,33.3,58.8c.6,0,13.5-7.2,26.1-14.1s25.2-14.1,25.2-14.1l126.59,46.2a45.48,45.48,0,0,1,25.5,23.4A44.41,44.41,0,0,1,476.73,234.1Z" transform="translate(-32.48 0)"/><path class="cls-1" d="M476.73,234.1l-20.4,56.4a15.19,15.19,0,0,1-14.1,9.6,14,14,0,0,1-5.1-.9L282,242.8l-14.1-46.5-37.5,8.4V96.4l8.11,3s32.39,58.8,33.3,58.8c.6,0,13.5-7.2,26.1-14.1s25.2-14.1,25.2-14.1l126.59,46.2a45.48,45.48,0,0,1,25.5,23.4A44.41,44.41,0,0,1,476.73,234.1Z" transform="translate(-32.48 0)"/><path class="cls-6" d="M185.43,241V512h90V241Z" transform="translate(-32.48 0)"/><path class="cls-6" d="M238.54,99.4l-8.11,22.2-33,90.6,33,12,37.5,13.5,14.1,5.1L323.13,130Z" transform="translate(-32.48 0)"/><rect class="cls-3" x="197.96" y="241" width="45" height="271"/><polygon class="cls-3" points="290.65 130 249.55 242.8 235.45 237.7 197.95 224.2 197.95 121.6 206.05 99.4 290.65 130"/></svg>