<svg id="Capa_1" data-name="Capa 1" xmlns="http://www.w3.org/2000/svg" viewBox="0 0 411.31 512"><defs><style>.cls-1{fill:#ffcbbe;}.cls-2{fill:#fdad9d;}.cls-3{fill:#95d6a4;}.cls-4{fill:#78c2a4;}.cls-5{fill:#756e78;}.cls-6{fill:#665e66;}.cls-7{fill:#aa7a63;}.cls-8{fill:#986b54;}.cls-9{fill:#5766cb;}.cls-10{fill:#3d4fc3;}</style></defs><path class="cls-1" d="M217.59,90h48.89v37.24H217.59Z" transform="translate(-50.34 0)"/><path class="cls-2" d="M252.48,90h14v37.24h-14Z" transform="translate(-50.34 0)"/><ellipse class="cls-1" cx="242.06" cy="55.37" rx="41.78" ry="49.29" transform="translate(-48.96 116.47) rotate(-27.13)"/><path class="cls-2" d="M279.21,36.22C268.36,15.06,246.59,3.91,227.57,8.47c11,4.43,20.91,13.32,27.2,25.58,12.42,24.22,5.84,52.39-14.69,62.92a36,36,0,0,1-8,3c10.68,4.32,22.33,4.4,32.46-.8C285.06,88.61,291.63,60.44,279.21,36.22Z" transform="translate(-50.34 0)"/><path class="cls-3" d="M297.67,296.3H186.4V159.67a40.16,40.16,0,0,1,40.17-40.16H257.5a40.16,40.16,0,0,1,40.17,40.16V296.3Z" transform="translate(-50.34 0)"/><path class="cls-4" d="M257.6,119.51H233.15a40.08,40.08,0,0,1,40.08,40.07V296.3h24.44V159.58A40.07,40.07,0,0,0,257.6,119.51Z" transform="translate(-50.34 0)"/><path class="cls-5" d="M226.9,48.93a16,16,0,0,1,16-16h34.49C264.31,11,239.12,1.39,219.55,11.43c-19.9,10.2-26.69,37-15.8,60.65A23.14,23.14,0,0,0,226.9,48.93Z" transform="translate(-50.34 0)"/><path class="cls-6" d="M254.17,32.94h23.21c-11.34-19-31.8-28.77-49.8-24.47A53.63,53.63,0,0,1,254.17,32.94Z" transform="translate(-50.34 0)"/><path class="cls-7" d="M446.72,435.7l-28.26-9.16a7.4,7.4,0,0,1-5.12-7v-4.7l-3-8.24H348.53l-3,8.24v34.3a15.66,15.66,0,0,0,15.66,15.66h82.19A10.78,10.78,0,0,0,454.17,454v-8a10.78,10.78,0,0,0-7.45-10.25Z" transform="translate(-50.34 0)"/><path class="cls-8" d="M446.72,435.7l-28.26-9.16a7.4,7.4,0,0,1-5.12-7v-4.7l-3-8.24h-26v12.94a7.39,7.39,0,0,0,5.11,7l28.26,9.17A10.77,10.77,0,0,1,425.21,446v8a10.79,10.79,0,0,1-10.79,10.78h29A10.78,10.78,0,0,0,454.17,454v-8a10.78,10.78,0,0,0-7.45-10.25Z" transform="translate(-50.34 0)"/><path class="cls-9" d="M345.54,345.09v69.72h67.8V309.46A37.48,37.48,0,0,0,375.86,272H186.4v33.29a34.51,34.51,0,0,0,34.51,34.51H340.23a5.31,5.31,0,0,1,5.31,5.31Z" transform="translate(-50.34 0)"/><path class="cls-10" d="M384.38,309.46V414.81h29V309.46A37.48,37.48,0,0,0,375.86,272h-29A37.48,37.48,0,0,1,384.38,309.46Z" transform="translate(-50.34 0)"/><path class="cls-5" d="M439.21,494.7H330.4a15,15,0,0,1-15-15V390.25A20.47,20.47,0,0,0,295,369.8H171.14a15,15,0,0,1-15-15V212.31h-22.8a15,15,0,1,1,0-29.93h37.76a15,15,0,0,1,15,15V339.88H295a50.43,50.43,0,0,1,50.37,50.37v74.52h93.85a15,15,0,0,1,0,29.93Z" transform="translate(-50.34 0)"/><path class="cls-6" d="M439.21,464.77H424.06a15,15,0,0,1,0,29.93h15.15a15,15,0,0,0,0-29.93Z" transform="translate(-50.34 0)"/><path class="cls-6" d="M330.21,390.25v65.5a9,9,0,0,0,9,9h6.13V390.25A50.37,50.37,0,0,0,295,339.88H279.83a50.43,50.43,0,0,1,50.38,50.37Z" transform="translate(-50.34 0)"/><path class="cls-6" d="M171,197.34V339.88H186.1V197.34a15,15,0,0,0-15-15H156A15,15,0,0,1,171,197.34Z" transform="translate(-50.34 0)"/><path class="cls-5" d="M170,504.52A112.17,112.17,0,1,1,282.17,392.35,112.3,112.3,0,0,1,170,504.52Zm0-194.41a82.24,82.24,0,1,0,82.24,82.24A82.33,82.33,0,0,0,170,310.11Z" transform="translate(-50.34 0)"/><path class="cls-6" d="M242,306.37A112.11,112.11,0,0,1,84,464.31,112.12,112.12,0,1,0,242,306.37Z" transform="translate(-50.34 0)"/><path class="cls-1" d="M386.39,259.89l14,12.8a44.82,44.82,0,0,1,14.38,29.44l.51,6.33a4.25,4.25,0,0,1-6.56,3.91l-45.95-29.91Z" transform="translate(-50.34 0)"/><path class="cls-2" d="M415.25,308.46l-.51-6.33a44.78,44.78,0,0,0-14.38-29.44l-14-12.79-7.76,7.4,5.89,5.39a44.78,44.78,0,0,1,14.38,29.44l.33,4.08,9.46,6.16A4.25,4.25,0,0,0,415.25,308.46Z" transform="translate(-50.34 0)"/><path class="cls-3" d="M368.64,291.13a4,4,0,0,1-5.36.26,44.22,44.22,0,0,0-28.89-10.62H264.8a56.4,56.4,0,0,1-56.4-56.4V168.9a22.45,22.45,0,0,1,44.9,0v55.47a11.5,11.5,0,0,0,11.5,11.5h69.59a88.88,88.88,0,0,1,60.28,23.34,4,4,0,0,1,.11,5.77Z" transform="translate(-50.34 0)"/><path class="cls-4" d="M394.67,259.21a88.88,88.88,0,0,0-60.28-23.34H264.8a11.5,11.5,0,0,1-11.5-11.5V168.9a22.46,22.46,0,0,0-32.05-20.29A22.44,22.44,0,0,1,230,166.4v66.69a11.51,11.51,0,0,0,11.5,11.51H311.1a88.82,88.82,0,0,1,60.28,23.34,4,4,0,0,1,.12,5.76l-13.7,13.7a44,44,0,0,1,5.48,4,4,4,0,0,0,5.36-.26L394.78,265a4,4,0,0,0-.11-5.77Z" transform="translate(-50.34 0)"/><path d="M457,466.1A18.17,18.17,0,0,0,461.65,454v-8A18.21,18.21,0,0,0,449,428.59l-28.19-9.15V315.25a11.62,11.62,0,0,0,1.88-7.39l-.51-6.33a52.14,52.14,0,0,0-16.79-34.35L403.06,265a11.42,11.42,0,0,0-3.35-11.33,96.6,96.6,0,0,0-65.33-25.3H264.8a4,4,0,0,1-4-4V168.9a29.93,29.93,0,1,0-59.86,0v55.47a63.57,63.57,0,0,0,14.22,40.12H193.88V159.58A32.63,32.63,0,0,1,226.47,127H257.6a32.63,32.63,0,0,1,32.59,32.59v39.15a7.48,7.48,0,1,0,15,0V159.58A47.63,47.63,0,0,0,274,114.93V102.06c19.54-14.47,24.9-43.93,11.91-69.25C271.59,5,240.3-7.62,216.13,4.77,204.21,10.89,195.84,22,192.55,36.06c-3.17,13.61-1.17,28.42,5.65,41.71a64,64,0,0,0,11.91,16.34v20.82a47.63,47.63,0,0,0-31.2,44.65v16.71a22.25,22.25,0,0,0-7.77-1.39H133.37a22.45,22.45,0,0,0,0,44.89h15.32v54.79a118.92,118.92,0,0,0-73.76,45.18,7.49,7.49,0,0,0,11.89,9.1A104.67,104.67,0,1,1,204.07,491.34,7.48,7.48,0,0,0,209,505.49a119.78,119.78,0,0,0,79.76-128.2H295a13,13,0,0,1,13,13v89.48a22.47,22.47,0,0,0,22.45,22.45H439.21A22.43,22.43,0,0,0,457,466.1ZM207.13,39.46c2.26-9.71,7.89-17.3,15.83-21.37,12.25-6.28,27.36-2.86,38.74,7.36H242.89a23.51,23.51,0,0,0-23.47,23.48,15.7,15.7,0,0,1-10.89,14.92A44.88,44.88,0,0,1,207.13,39.46Zm15.43,45.82a48.53,48.53,0,0,1-7.19-8,30.67,30.67,0,0,0,19-28.34,8.52,8.52,0,0,1,8.52-8.51h30c9.65,19.64,5.23,42-10.28,51.21A7.48,7.48,0,0,0,259,98.06v14c-.46,0-.92,0-1.39,0H226.47c-.47,0-.93,0-1.4,0V90.88a7.48,7.48,0,0,0-2.51-5.6ZM444.41,442.82a3.3,3.3,0,0,1,2.28,3.14v8c.07,3.95-4.87,3.32-7.48,3.3h-78a8.19,8.19,0,0,1-8.18-8.18V422.29h53.11a14.85,14.85,0,0,0,10,11.37ZM338.06,351.67a61,61,0,0,0-4.4-4.41h4.4Zm69.21-49.16L383.38,287l10.27-10.27,1.65,1.51a37.21,37.21,0,0,1,12,24.3ZM215.89,168.9a15,15,0,0,1,29.93,0v55.47a19,19,0,0,0,19,19h69.59a81.72,81.72,0,0,1,52.47,19l-21.31,21.3a52.07,52.07,0,0,0-31.16-10.34H264.8a49,49,0,0,1-48.91-48.92V168.9Zm-52.23,104V212.31a7.48,7.48,0,0,0-7.48-7.49H133.37a7.48,7.48,0,0,1,0-15h37.77a7.49,7.49,0,0,1,7.48,7.48V273c-2.85-.2-5.72-.31-8.62-.31Q166.81,272.7,163.66,272.87Zm46,6.59h22.19a6.26,6.26,0,0,0,.63,0,63.49,63.49,0,0,0,32.34,8.83h69.59a36.55,36.55,0,0,1,24,8.83,11.3,11.3,0,0,0,7.36,2.69,11.54,11.54,0,0,0,6.61-2.09l32.21,21a12.82,12.82,0,0,0,1.25.7v88H353V345.09a12.81,12.81,0,0,0-12.79-12.8H273.45a120.28,120.28,0,0,0-63.81-52.83ZM439.21,487.21H330.4a7.48,7.48,0,0,1-7.48-7.48V390.25A28,28,0,0,0,295,362.32h-9.16a118.67,118.67,0,0,0-5-15H295a42.94,42.94,0,0,1,42.89,42.89v74.52a7.48,7.48,0,0,0,7.48,7.48h93.85a7.48,7.48,0,1,1,0,15Z" transform="translate(-50.34 0)"/><path d="M170,482.07a89.72,89.72,0,1,0-89.73-89.72A89.82,89.82,0,0,0,170,482.07Zm23.59-160.64a74.46,74.46,0,0,1,21,11h-21Zm-15-3.33v21.78a7.48,7.48,0,0,0,7.49,7.48h43.55a74.59,74.59,0,0,1,8.78,15h-67.3a7.49,7.49,0,0,1-7.48-7.48v-37c2.09-.18,4.2-.29,6.34-.29a76.59,76.59,0,0,1,8.62.51Zm-29.93,2.6v34.14a22.47,22.47,0,0,0,22.45,22.45h72.09a74.76,74.76,0,1,1-94.54-56.59Z" transform="translate(-50.34 0)"/><path d="M170,497A104.69,104.69,0,0,1,71.5,356.88a7.49,7.49,0,0,0-14.08-5.09A119.66,119.66,0,0,0,170,512a7.48,7.48,0,0,0,0-15Z" transform="translate(-50.34 0)"/></svg>