<svg id="Capa_1" data-name="Capa 1" xmlns="http://www.w3.org/2000/svg" viewBox="0 0 512 441.96"><defs><style>.cls-1{fill:#fc1d5a;}.cls-2{fill:#dd0057;}.cls-3{fill:#0082ff;}.cls-4{fill:#005fe4;}.cls-5{fill:#fff;}.cls-6{fill:#e9edf5;}</style></defs><path class="cls-1" d="M481,250.53a131,131,0,0,0-7.39-177.16c-51.06-51.05-134.13-51.05-185.18,0L256,105.84,223.53,73.37A130.95,130.95,0,0,0,38.31,258.52L255.22,477Z" transform="translate(0 -35.02)"/><path class="cls-2" d="M481,250.53a131,131,0,0,0-7.39-177.16c-51.06-51.05-134.13-51.05-185.18,0L256,105.84,255.22,477Z" transform="translate(0 -35.02)"/><path class="cls-3" d="M403.55,198.33A108.45,108.45,0,1,0,512,306.78,108.56,108.56,0,0,0,403.55,198.33Z" transform="translate(0 -35.02)"/><path class="cls-4" d="M403.55,198.33v216.9a108.45,108.45,0,0,0,0-216.9Z" transform="translate(0 -35.02)"/><polygon class="cls-5" points="444.17 256.76 418.4 256.76 418.4 230.99 388.4 230.99 388.4 256.76 362.63 256.76 362.63 286.76 388.4 286.76 388.4 312.53 418.4 312.53 418.4 286.76 444.17 286.76 444.17 256.76"/><polygon class="cls-6" points="418.4 256.76 418.4 230.99 403.21 230.99 403.21 312.53 418.4 312.53 418.4 286.76 444.17 286.76 444.17 256.76 418.4 256.76"/></svg>