<svg id="Capa_1" data-name="Capa 1" xmlns="http://www.w3.org/2000/svg" viewBox="0 0 336.74 512"><defs><style>.cls-1{fill:#fc5755;}.cls-2{fill:#fc0e3c;}.cls-3{fill:#fd9593;}.cls-4{fill:#ef7d80;}</style></defs><path class="cls-1" d="M206.51,234.93l-95-95.54A81.67,81.67,0,0,1,227,23.92l14.17,14.16,14.16-14.16a81.67,81.67,0,0,1,115.49,115.5l-95,95.51Z" transform="translate(-87.63)"/><path class="cls-2" d="M370.83,23.92a81.66,81.66,0,0,0-115.49,0L241.18,38.08V234.93h34.67l95-95.51a81.67,81.67,0,0,0,0-115.5Z" transform="translate(-87.63)"/><path class="cls-3" d="M385.34,254.89a38.85,38.85,0,0,0-9.46,1.17,39,39,0,0,0-53.24-30.34A39,39,0,0,0,280.2,207.9V155.13a39,39,0,0,0-78,0V296.74l-1.45-1.41a34.76,34.76,0,0,0-57.21,35.94l13.66,40.83a158.87,158.87,0,0,0,35,58.63L223,463.67V512H382.88V465.18l41.49-73.28v-98A39.08,39.08,0,0,0,385.34,254.89Z" transform="translate(-87.63)"/><path class="cls-4" d="M202,296.58l-1.28-1.25a34.76,34.76,0,0,0-57.21,35.94l13.66,40.83a159,159,0,0,0,35,58.63L202,441.26V296.58Z" transform="translate(-87.63)"/><path class="cls-1" d="M385.34,254.89a38.85,38.85,0,0,0-9.46,1.17,39,39,0,0,0-53.24-30.34A39,39,0,0,0,280.2,207.9V155.13a39.07,39.07,0,0,0-39-39V512h141.7V465.18l41.49-73.28v-98A39.08,39.08,0,0,0,385.34,254.89Z" transform="translate(-87.63)"/></svg>