<svg id="Capa_1" data-name="Capa 1" xmlns="http://www.w3.org/2000/svg" viewBox="0 0 490.67 465.67"><defs><style>.cls-1{fill:#ffc107;}.cls-2{fill:#ffd54f;}.cls-3{fill:#f44336;}</style></defs><path class="cls-1" d="M458.67,222.17H32a10.67,10.67,0,0,0-10.67,10.67v192a53.34,53.34,0,0,0,53.34,53.33H416a53.33,53.33,0,0,0,53.33-53.33v-192A10.67,10.67,0,0,0,458.67,222.17Z" transform="translate(0 -12.5)"/><path class="cls-2" d="M32,115.5H458.67a32,32,0,0,1,32,32v64a32,32,0,0,1-32,32H32a32,32,0,0,1-32-32v-64A32,32,0,0,1,32,115.5Z" transform="translate(0 -12.5)"/><path class="cls-3" d="M245.33,136.84A118.05,118.05,0,0,1,132.86,53h0a31.87,31.87,0,0,1,39.3-39.32A118,118,0,0,1,256,126.17,10.67,10.67,0,0,1,245.33,136.84Zm-92-89.94A96.61,96.61,0,0,0,234,114.78a96.58,96.58,0,0,0-67.9-80.68,10.54,10.54,0,0,0-12.8,12.8Z" transform="translate(0 -12.5)"/><path class="cls-3" d="M245.33,136.84a10.67,10.67,0,0,1-10.66-10.67A118,118,0,0,1,318.51,13.7,31.86,31.86,0,0,1,357.82,53h0A118,118,0,0,1,245.33,136.84Zm82-103.09a9.18,9.18,0,0,0-2.71.41,96.59,96.59,0,0,0-67.91,80.66,96.57,96.57,0,0,0,80.66-67.93h0a10,10,0,0,0-2.77-10A10.38,10.38,0,0,0,327.3,33.75Z" transform="translate(0 -12.5)"/><path class="cls-3" d="M181.33,200.84a10.67,10.67,0,0,1-7.55-18.22l64-64a10.67,10.67,0,0,1,15.35,14.82l-.27.26-64,64A10.68,10.68,0,0,1,181.33,200.84Z" transform="translate(0 -12.5)"/><rect class="cls-3" x="234.67" y="103.01" width="21.33" height="362.67"/><path class="cls-3" d="M309.33,200.84a10.7,10.7,0,0,1-7.55-3.12l-64-64a10.66,10.66,0,0,1,15.08-15.08l64,64a10.67,10.67,0,0,1-7.53,18.2Z" transform="translate(0 -12.5)"/></svg>