<svg id="Capa_1" data-name="Capa 1" xmlns="http://www.w3.org/2000/svg" viewBox="0 0 512 512"><defs><style>.cls-1{fill:#ffdf40;}.cls-2{fill:#ffbe40;}.cls-3{fill:#353d4d;}.cls-4{fill:#515866;}.cls-5{fill:#fb9;}.cls-6{fill:#ff9680;}.cls-7{fill:#ffd9b3;}</style></defs><path class="cls-1" d="M256,0C181.56,0,121,61.56,121,136s60.56,135,135,135,135-60.56,135-135S330.44,0,256,0Z"/><path class="cls-2" d="M391,136C391,61.56,330.44,0,256,0V271C330.44,271,391,210.44,391,136Z"/><path class="cls-3" d="M286,91h30v30H286Z"/><path class="cls-4" d="M196,91h30v30H196Z"/><path class="cls-5" d="M496.5,181c-24.58.17-45.14,21.6-46.59,46.13a399.12,399.12,0,0,1-5.17,45.68l-14.57,14.74-15.89-15.29c-77.72,6.44-130.4,65.26-138.53,138.87A794.86,794.86,0,0,0,271,497v15H391V497c0-14.44,10.72-25.4,31.27-43.2C457.61,423.21,512,377,512,256V181Z"/><path class="cls-6" d="M414.28,272.26c-6.06,31.28-22.77,78.5-45.25,90.45l13.68,26.71c33.82-16.91,54.9-76.4,62-116.61A154.62,154.62,0,0,0,414.28,272.26Z"/><path class="cls-7" d="M15.5,181c24.58.17,45.14,21.6,46.59,46.13a399.12,399.12,0,0,0,5.17,45.68l14.57,14.74,15.89-15.29c77.72,6.44,130.41,65.26,138.53,138.87A794.86,794.86,0,0,1,241,497v15H121V497c0-14.44-10.72-25.4-31.27-43.2C54.39,423.21,0,377,0,256V181Z"/><path class="cls-5" d="M97.72,272.26c6.06,31.28,22.77,78.5,45.25,90.45l-13.68,26.71c-33.82-16.91-54.9-76.4-62-116.61a154.62,154.62,0,0,1,30.46-.55Z"/><path class="cls-4" d="M297.47,153.48a45,45,0,0,1-82.94,0L186.9,165.19a75,75,0,0,0,138.2,0Z"/><path class="cls-3" d="M325.1,165.19l-27.63-11.71A45,45,0,0,1,256,181v30A74.94,74.94,0,0,0,325.1,165.19Z"/></svg>