<svg id="Layer_1" data-name="Layer 1" xmlns="http://www.w3.org/2000/svg" viewBox="0 0 512 512"><defs><style>.cls-1{fill:#e57e25;}.cls-2{fill:#393f4a;}.cls-3{fill:#464f5d;}.cls-4{fill:#285680;}.cls-5{fill:#4482c3;}.cls-6{fill:#f29c1f;}.cls-7{fill:#fff;}.cls-8{fill:#f3d55b;}</style></defs><g id="_003---Learn-Language" data-name="003---Learn-Language"><path id="Shape" class="cls-1" d="M141.24,406.07,49.43,474.92a8.82,8.82,0,0,1-14.12-7.06V379.59Z" transform="translate(0 0)"/><path id="Shape-2" data-name="Shape" class="cls-2" d="M141.24,149.8,5.6,99.32a8.25,8.25,0,0,1,.26-15.71L250.09,1a18.14,18.14,0,0,1,11.82,0L506.14,83.78a8.26,8.26,0,0,1,.26,15.72L370.76,149.8Z" transform="translate(0 0)"/><path id="Shape-3" data-name="Shape" class="cls-3" d="M370.76,247.17V123.59c0-19.51-51.38-35.31-114.76-35.31s-114.76,15.8-114.76,35.31v88.27Z" transform="translate(0 0)"/><path id="Shape-4" data-name="Shape" class="cls-4" d="M476.69,414.9v88.27a8.82,8.82,0,0,1-14.12,7.06l-91.81-68.85Z" transform="translate(0 0)"/><path id="Shape-5" data-name="Shape" class="cls-5" d="M512,229.52v194.2a17.72,17.72,0,0,1-17.66,17.66H256a17.72,17.72,0,0,1-17.66-17.66c0-24.94-5.16,10.76,35.32-211.86H494.34A17.72,17.72,0,0,1,512,229.52Z" transform="translate(0 0)"/><rect id="Rectangle-path" class="cls-6" y="176.55" width="273.66" height="229.52" rx="17.66"/><path id="Shape-6" data-name="Shape" class="cls-7" d="M379.59,406.07a8.83,8.83,0,0,1-8.83-8.83V256a8.83,8.83,0,1,1,17.65,0V397.24A8.82,8.82,0,0,1,379.59,406.07Z" transform="translate(0 0)"/><path id="Shape-7" data-name="Shape" class="cls-7" d="M441.38,406.07a8.83,8.83,0,0,1-8.83-8.83,63.63,63.63,0,0,0-9-38.2c-2.29,40.75-28.24,47-44,47a42.15,42.15,0,0,1-44.14-39.73,42.15,42.15,0,0,1,44.14-39.72c29.42,0,26.48,5.4,26.48,0a8.83,8.83,0,1,1,17.65,0v9.15c15.62,9.19,26.49,27.13,26.49,61.47a8.84,8.84,0,0,1-8.83,8.83Zm-61.79-61.79a24.61,24.61,0,0,0-26.49,22.06,24.61,24.61,0,0,0,26.49,22.07c23.42,0,26.48-18.05,26.48-41.14A92.4,92.4,0,0,0,379.59,344.28Z" transform="translate(0 0)"/><path id="Shape-8" data-name="Shape" class="cls-7" d="M414.9,282.48H344.28a8.83,8.83,0,1,1,0-17.65H414.9a8.83,8.83,0,0,1,0,17.65Z" transform="translate(0 0)"/><path id="Shape-9" data-name="Shape" class="cls-7" d="M211.86,361.93a8.8,8.8,0,0,1-7.81-4.7l-63-118.78L78.42,357.23A8.83,8.83,0,1,1,62.82,349l63-118.79a17.35,17.35,0,0,1,30.89,0l63,118.79a8.83,8.83,0,0,1-7.77,13Z" transform="translate(0 0)"/><path id="Shape-10" data-name="Shape" class="cls-7" d="M183.79,309H98.69a8.83,8.83,0,1,1,0-17.66h85.1a8.83,8.83,0,1,1,0,17.66Z" transform="translate(0 0)"/><path id="Shape-11" data-name="Shape" class="cls-8" d="M503.17,176.55a8.83,8.83,0,0,1-8.83-8.83V91.63a8.83,8.83,0,1,1,17.66,0v76.09A8.83,8.83,0,0,1,503.17,176.55Z" transform="translate(0 0)"/></g></svg>