<svg id="Capa_1" data-name="Capa 1" xmlns="http://www.w3.org/2000/svg" viewBox="0 0 511.93 512.31"><defs><style>.cls-1{fill:#acb3ba;}.cls-2{fill:#ffd15c;}.cls-3{fill:#f8b64c;}.cls-4{fill:#40596b;}.cls-5{fill:#84dbff;}.cls-6{fill:#fff;}</style></defs><rect class="cls-1" x="328.86" y="342.08" width="62.93" height="35.2" transform="translate(-148.98 360.14) rotate(-45)"/><path class="cls-2" d="M497.26,497.07h0c-21.34,21.33-57.61,20.26-76.8-3.2l-76.8-92.8,57.6-57.6,92.8,76.8C516.46,439.47,518.59,474.67,497.26,497.07Z" transform="translate(-0.19)"/><path class="cls-3" d="M416.19,354.13,354.32,416c-6.4,6.4-16,6.4-21.33,0l-2.13-2.13c-6.4-6.4-6.4-16,0-21.34l61.86-61.86c6.4-6.4,16-6.4,21.34,0l2.13,2.13C422.59,338.13,422.59,348.8,416.19,354.13Z" transform="translate(-0.19)"/><circle class="cls-4" cx="206.93" cy="206.93" r="206.93"/><circle class="cls-5" cx="206.93" cy="206.93" r="153.6"/><path class="cls-6" d="M95.12,222.93a16.4,16.4,0,0,1-16-16A126.55,126.55,0,0,1,206.05,80a16,16,0,0,1,0,32,95.15,95.15,0,0,0-94.93,94.93A15.7,15.7,0,0,1,95.12,222.93Z" transform="translate(-0.19)"/></svg>