<svg id="Capa_1" data-name="Capa 1" xmlns="http://www.w3.org/2000/svg" viewBox="0 0 512 341.33"><defs><style>.cls-1{fill:#1e88e5;}.cls-2{fill:#64b5f6;}.cls-3{fill:#2196f3;}</style></defs><path class="cls-1" d="M499.63,407.47a53.36,53.36,0,0,1-41,19.2H53.33a53.36,53.36,0,0,1-41-19.2L208,244.48l20.27,13.87a48.84,48.84,0,0,0,55.47,0L304,244.48Z" transform="translate(0 -85.33)"/><path class="cls-2" d="M502.61,108.59,304,244.48l-20.27,13.87a48.82,48.82,0,0,1-55.46,0L208,244.48,9.39,108.37a53.58,53.58,0,0,1,43.94-23H458.67A52.62,52.62,0,0,1,502.61,108.59Z" transform="translate(0 -85.33)"/><path class="cls-3" d="M208,244.48l-195.63,163A53.17,53.17,0,0,1,0,373.33V138.67a52.52,52.52,0,0,1,9.39-30.29Z" transform="translate(0 -85.33)"/><path class="cls-3" d="M512,138.67V373.34a53.16,53.16,0,0,1-12.37,34.13L304,244.48,502.61,108.59A52.34,52.34,0,0,1,512,138.67Z" transform="translate(0 -85.33)"/></svg>