<svg id="Capa_1" data-name="Capa 1" xmlns="http://www.w3.org/2000/svg" viewBox="0 0 501.33 512"><defs><style>.cls-1{fill:#ec5569;}.cls-2{fill:#e63950;}.cls-3{fill:#fff5f5;}.cls-4{fill:#dce6eb;}</style></defs><path class="cls-1" d="M412.41,0H99.59A94.26,94.26,0,0,0,5.33,94.26V299.43a94.26,94.26,0,0,0,94.26,94.26h44.89a3.86,3.86,0,0,1,3.87,3.86V498.76a13.21,13.21,0,0,0,22.83,9.05L277.37,394.9a3.89,3.89,0,0,1,2.82-1.21H412.41a94.26,94.26,0,0,0,94.26-94.26V94.26A94.26,94.26,0,0,0,412.41,0Z" transform="translate(-5.33)"/><path class="cls-2" d="M188,358.51a3.92,3.92,0,0,0-3.75-4.07H140.8c-50.4,0-91.25-44.44-91.25-99.26V39.12a107.47,107.47,0,0,1,3.36-26.77A94.24,94.24,0,0,0,5.33,94.26V299.43a94.26,94.26,0,0,0,94.26,94.26h44.89a3.86,3.86,0,0,1,3.87,3.86V498.76a13.21,13.21,0,0,0,22.83,9.05L188,489.93V358.51Z" transform="translate(-5.33)"/><path class="cls-1" d="M361.91,122.32h0a61.29,61.29,0,0,0-86.67,0l-13.51,13.52a8.25,8.25,0,0,1-11.68,0l-13.3-13.3a61.28,61.28,0,0,0-86.66,0h0a61.28,61.28,0,0,0,0,86.66l100,100a8.26,8.26,0,0,0,11.67,0L361.91,209A61.29,61.29,0,0,0,361.91,122.32Z" transform="translate(-5.33)"/><path class="cls-3" d="M361.91,122.32h0a61.29,61.29,0,0,0-86.67,0l-13.51,13.52a8.25,8.25,0,0,1-11.68,0l-13.3-13.3a61.28,61.28,0,0,0-86.66,0h0a61.28,61.28,0,0,0,0,86.66l100,100a8.26,8.26,0,0,0,11.67,0L361.91,209A61.29,61.29,0,0,0,361.91,122.32Z" transform="translate(-5.33)"/><path class="cls-4" d="M182.15,209.2a61.26,61.26,0,0,1,0-86.66h0a61,61,0,0,1,27.3-15.81,61.25,61.25,0,0,0-59.36,15.81h0a61.28,61.28,0,0,0,0,86.66l100,100a8.27,8.27,0,0,0,11.68,0L271.93,299Z" transform="translate(-5.33)"/></svg>