<svg id="Bold" xmlns="http://www.w3.org/2000/svg" viewBox="0 0 415.98 511.99"><defs><style>.cls-1{fill:#fff;}</style></defs><path class="cls-1" d="M263,0C122.6,0,48,89.94,48,188c0,45.46,25.41,102.19,66.09,120.17,11.61,5.23,10.07-1.15,20-39.34a9,9,0,0,0-2.17-8.89C73.81,192.66,120.62,54.38,254.66,54.38c194,0,157.73,268.41,33.75,268.41-32,0-55.77-25.08-48.24-56.12,9.13-37,27-76.72,27-103.36,0-67.16-100.05-57.2-100.05,31.78,0,27.5,9.72,46.06,9.72,46.06s-32.19,130-38.16,154.35c-10.11,41.13,1.36,107.71,2.37,113.45.61,3.16,4.16,4.16,6.14,1.56,3.18-4.16,42.09-59.67,53-99.8,4-14.61,20.25-73.92,20.25-73.92,10.73,19.37,41.66,35.58,74.62,35.58,98.05,0,168.92-86.18,168.92-193.13C463.64,76.71,375.89,0,263,0Z" transform="translate(-48)"/></svg>