<svg id="Capa_1" data-name="Capa 1" xmlns="http://www.w3.org/2000/svg" viewBox="0 0 512 512"><defs><style>.cls-1{fill:#ff6b6b;}.cls-2{fill:#ff1f3d;}.cls-3{fill:#f9f9f9;}.cls-4{fill:#e2dff4;}</style></defs><circle class="cls-1" cx="256" cy="256" r="256"/><path class="cls-2" d="M512,256H0C0,397.39,114.61,512,256,512S512,397.39,512,256Z"/><path class="cls-3" d="M186,401a15,15,0,0,1-15-15V126a15,15,0,0,1,23.78-12.16l180,130a15,15,0,0,1,0,24.32l-180,130A15,15,0,0,1,186,401Z"/><path class="cls-4" d="M171,256V386a15,15,0,0,0,23.78,12.16l180-130A15,15,0,0,0,381,256Z"/></svg>