<svg id="Layer_1" data-name="Layer 1" xmlns="http://www.w3.org/2000/svg" xmlns:xlink="http://www.w3.org/1999/xlink" viewBox="0 0 499.53 499.53"><defs><style>.cls-1{fill:url(#linear-gradient);}.cls-2{fill:url(#linear-gradient-2);}.cls-3{fill:url(#linear-gradient-3);}.cls-4{fill:url(#linear-gradient-4);}.cls-5{fill:url(#linear-gradient-5);}</style><linearGradient id="linear-gradient" x1="354.02" y1="96.02" x2="417.98" y2="159.98" gradientTransform="matrix(1, 0, 0, -1, 0, 514)" gradientUnits="userSpaceOnUse"><stop offset="0.01" stop-color="#f8c73f"/><stop offset="1" stop-color="#fada7f"/></linearGradient><linearGradient id="linear-gradient-2" x1="58.36" y1="188.36" x2="325.64" y2="455.64" gradientTransform="matrix(1, 0, 0, -1, -3, 511)" gradientUnits="userSpaceOnUse"><stop offset="0.01" stop-color="#60c6be"/><stop offset="1" stop-color="#80d1cb"/></linearGradient><linearGradient id="linear-gradient-3" x1="90.18" y1="220.18" x2="293.82" y2="423.82" gradientTransform="matrix(1, 0, 0, -1, -3, 511)" gradientUnits="userSpaceOnUse"><stop offset="0.01" stop-color="#dcdce3"/><stop offset="1" stop-color="#ededf1"/></linearGradient><linearGradient id="linear-gradient-4" x1="131.43" y1="275.03" x2="252.57" y2="396.17" gradientTransform="matrix(1, 0, 0, -1, 0, 514)" gradientUnits="userSpaceOnUse"><stop offset="0" stop-color="#d46669"/><stop offset="1" stop-color="#dd888a"/></linearGradient><linearGradient id="linear-gradient-5" x1="163.72" y1="309.72" x2="220.28" y2="366.28" xlink:href="#linear-gradient-3"/></defs><g id="_02-search" data-name=" 02-search"><g id="gradient"><path class="cls-1" d="M502.52,447.81a24.07,24.07,0,0,0-8-17.22L322.13,276.9a12,12,0,0,0-16.47.47l-28.29,28.29a12,12,0,0,0-.47,16.47L430.59,494.5a24.07,24.07,0,0,0,17.22,8h.68a24.12,24.12,0,0,0,17-7l30-30a24.1,24.1,0,0,0,7-17.66Z" transform="translate(-3 -3)"/><circle class="cls-2" cx="189" cy="189" r="189"/><circle class="cls-3" cx="189" cy="189" r="144"/><path class="cls-4" d="M192,92a84.11,84.11,0,0,0-84,84c0,23,13.15,49.21,39.08,78a323.46,323.46,0,0,0,37.55,35.44,12,12,0,0,0,14.74,0A323.46,323.46,0,0,0,236.92,254C262.85,225.21,276,199,276,176A84.11,84.11,0,0,0,192,92Z" transform="translate(-3 -3)"/><circle class="cls-5" cx="189" cy="173" r="40"/></g></g></svg>