<svg id="Capa_1" data-name="Capa 1" xmlns="http://www.w3.org/2000/svg" viewBox="0 0 512 512"><defs><style>.cls-1{fill:#ffd15c;}.cls-2{fill:#5c5e70;}.cls-3{fill:#e8dbc4;}.cls-4{fill:#494b5b;}.cls-5{fill:#ff525d;}.cls-6{fill:#c69a6a;}.cls-7{fill:#4bc999;}.cls-8{fill:#34abe0;}</style></defs><path class="cls-1" d="M512,256a257.11,257.11,0,0,1-5.17,51.42,253.72,253.72,0,0,1-11.93,40.75h0a255.51,255.51,0,0,1-44.56,74.46,258.85,258.85,0,0,1-19.59,20.43q-7.31,6.82-15.13,13.08a256,256,0,0,1-319.24,0q-7.81-6.25-15.13-13.08a258.85,258.85,0,0,1-19.59-20.43A255,255,0,0,1,0,256q0-11.88,1.07-23.5A256.1,256.1,0,0,1,481.2,134.15a251.88,251.88,0,0,1,12.51,26.65A255.25,255.25,0,0,1,512,256Z" transform="translate(0)"/><path class="cls-2" d="M450.34,24.87V422.64a256,256,0,0,1-388.68,0V24.87A24.86,24.86,0,0,1,86.53,0H425.47A24.88,24.88,0,0,1,450.34,24.87Z" transform="translate(0)"/><path class="cls-3" d="M430.75,85.46V443.07q-9.63,9-20.14,17a256,256,0,0,1-309.22,0,261.21,261.21,0,0,1-20.14-17V85.46A14.83,14.83,0,0,1,96.08,70.63H415.92a14.87,14.87,0,0,1,14.83,14.83Z" transform="translate(0)"/><path class="cls-4" d="M321.82,45.56H190.17a11,11,0,0,1-11-11h0a11,11,0,0,1,11-11H321.82a11,11,0,0,1,11,11h0A11,11,0,0,1,321.82,45.56Z" transform="translate(0)"/><path class="cls-5" d="M410.61,104.41v55.52A14.66,14.66,0,0,1,396,174.59H116a14.65,14.65,0,0,1-14.65-14.66V104.41A14.64,14.64,0,0,1,116,89.76H396A14.65,14.65,0,0,1,410.61,104.41Z" transform="translate(0)"/><path class="cls-6" d="M410.61,362.52v97.53a256,256,0,0,1-309.22,0V362.52a12.77,12.77,0,0,1,12.77-12.78H397.82A12.77,12.77,0,0,1,410.61,362.52Z" transform="translate(0)"/><path class="cls-7" d="M410.61,211.61v99.75A14.66,14.66,0,0,1,396,326H283a14.66,14.66,0,0,1-14.66-14.66V211.61A14.66,14.66,0,0,1,283,197H396A14.66,14.66,0,0,1,410.61,211.61Z" transform="translate(0)"/><path class="cls-8" d="M229,326H116a14.65,14.65,0,0,1-14.66-14.65V211.61A14.65,14.65,0,0,1,116,197H229a14.65,14.65,0,0,1,14.65,14.65v99.75A14.65,14.65,0,0,1,229,326Z" transform="translate(0)"/></svg>