<svg id="Layer_1" data-name="Layer 1" xmlns="http://www.w3.org/2000/svg" viewBox="0 0 512.9 513"><defs><style>.cls-1,.cls-2{fill:#ff7d34;}.cls-1{stroke:#f63;stroke-miterlimit:10;}</style></defs><path class="cls-1" d="M470,180H329.4c.4-4.9.7-9.9.7-15C330,74,256,0,165,0A165.41,165.41,0,0,0,82.5,22a10,10,0,1,0,10,17.4A145,145,0,0,1,165,20c80,0,145,65.1,145,145S245,310,165,310a143.1,143.1,0,0,1-90.9-32.1,10.21,10.21,0,0,0-9.2-1.8L38.4,283l10.4-22.9a10,10,0,0,0-1-10A142.57,142.57,0,0,1,20,165,144.17,144.17,0,0,1,39.5,92.4,10,10,0,1,0,22.2,82.3,165.59,165.59,0,0,0,0,165a163.23,163.23,0,0,0,28.2,92.2L11.4,294a10.21,10.21,0,0,0,1.4,10.6A9.79,9.79,0,0,0,23,307.8l42.5-11.1A166.1,166.1,0,0,0,165,330a174.17,174.17,0,0,0,23-1.6V416a42,42,0,0,0,42,42H371.4l63.2,51.7a10,10,0,0,0,6.3,2.3,9.35,9.35,0,0,0,4.3-1,10,10,0,0,0,5.7-9V458h19a42,42,0,0,0,42-42V222A41.85,41.85,0,0,0,470,180Zm22,236a22.06,22.06,0,0,1-22,22H441a10,10,0,0,0-10,10v32.9l-49.4-40.4c-2.7-2.5-5.1-2.5-10.5-2.5H230a22.06,22.06,0,0,1-22-22V324.4A165.64,165.64,0,0,0,326.3,200H470a22.06,22.06,0,0,1,22,22Z" transform="translate(0.5 0.5)"/><path class="cls-2" d="M399.8,348.6a9.88,9.88,0,0,0,5.7-9,10,10,0,0,0-10-10h-4.1l-32.3-73.5a10.11,10.11,0,0,0-9.2-6,10,10,0,0,0-9.2,6l-32.3,73.5h-4.1a10,10,0,0,0-4.3,19L288,376a10,10,0,1,0,18.3,8.1l15.1-34.4h56.7l15.1,34.4a9.89,9.89,0,0,0,9.2,6,11.4,11.4,0,0,0,4-.8,9.89,9.89,0,0,0,5.1-13.2Zm-69.4-19L350,285l19.6,44.6Z" transform="translate(0.5 0.5)"/><path class="cls-2" d="M55.4,65.4a10.52,10.52,0,0,0,7.1-2.9,9.9,9.9,0,0,0,2.9-7.1,10.52,10.52,0,0,0-2.9-7.1,9.9,9.9,0,0,0-7.1-2.9,10.52,10.52,0,0,0-7.1,2.9,9.9,9.9,0,0,0-2.9,7.1,9.9,9.9,0,0,0,10,10Z" transform="translate(0.5 0.5)"/><path class="cls-2" d="M105.3,225.9a10.12,10.12,0,0,0-4,13.6,10,10,0,0,0,8.8,5.2,10.34,10.34,0,0,0,4.8-1.2,114.41,114.41,0,0,0,49.5-53.7,114.41,114.41,0,0,0,49.5,53.7,10.34,10.34,0,0,0,4.8,1.2,10.09,10.09,0,0,0,8.8-5.2,10,10,0,0,0-4-13.6,94.34,94.34,0,0,1-48-68.8h44.4a10,10,0,0,0,0-20H174.4V95.4a10,10,0,0,0-20,0v41.7H118.3a10,10,0,1,0,0,20h35.1A94.73,94.73,0,0,1,105.3,225.9Z" transform="translate(0.5 0.5)"/></svg>