<svg id="Layer_1" data-name="Layer 1" xmlns="http://www.w3.org/2000/svg" viewBox="0 0 512 512"><defs><style>.cls-1{fill:#fff;}</style></defs><path class="cls-1" d="M470,180H329.36c.44-4.93.68-9.93.68-15C330,74,256,0,165,0A165,165,0,0,0,82.57,22.05a10,10,0,1,0,10,17.31A145,145,0,0,1,165,20c80,0,145,65.05,145,145S245,310,165,310A143.44,143.44,0,0,1,74.08,278a10,10,0,0,0-9.21-1.77l-26.55,6.94,10.4-22.85a10,10,0,0,0-1-10A145.1,145.1,0,0,1,39.46,92.4a10,10,0,1,0-17.3-10,165.13,165.13,0,0,0,6,174.85L11.41,294A10,10,0,0,0,23,307.82L65.57,296.7A165,165,0,0,0,188,328.43V416a42,42,0,0,0,42,42H371.43l63.24,51.74A10,10,0,0,0,451,502V458h19a42,42,0,0,0,42-42V222A42,42,0,0,0,470,180Zm22,236a22,22,0,0,1-22,22H441a10,10,0,0,0-10,10v32.89l-49.39-40.41C378.89,438,376.5,438,371.15,438H230a22,22,0,0,1-22-22V324.35A165.57,165.57,0,0,0,326.3,200H470a22,22,0,0,1,22,22Z"/><path class="cls-1" d="M399.76,348.61a10,10,0,0,0-4.26-19h-4.09l-32.25-73.5a10,10,0,0,0-18.32,0l-32.25,73.5H304.5a10,10,0,0,0-4.26,19l-12,27.37a10,10,0,1,0,18.31,8l15.12-34.45h56.68L393.46,384a10,10,0,1,0,18.31-8Zm-69.33-19L350,285l19.57,44.6Z"/><path class="cls-1" d="M55.4,65.4a10,10,0,1,0-7.07-2.93A10.08,10.08,0,0,0,55.4,65.4Z"/><path class="cls-1" d="M105.33,225.88A10,10,0,0,0,115,243.42a114.56,114.56,0,0,0,49.49-53.69,114.56,114.56,0,0,0,49.49,53.69,10,10,0,1,0,9.62-17.54,94.56,94.56,0,0,1-48-68.81h44.4a10,10,0,1,0,0-20H174.44V95.39a10,10,0,1,0-20,0v41.68H118.31a10,10,0,0,0,0,20h35.06A94.59,94.59,0,0,1,105.33,225.88Z"/></svg>