<svg id="Layer_1" data-name="Layer 1" xmlns="http://www.w3.org/2000/svg" xmlns:xlink="http://www.w3.org/1999/xlink" viewBox="0 0 499.53 499.53"><defs><style>.cls-1{fill:url(#linear-gradient);}.cls-2{fill:url(#linear-gradient-2);}.cls-3{fill:url(#linear-gradient-3);}.cls-4{fill:url(#linear-gradient-4);}.cls-5{fill:url(#linear-gradient-5);}</style><linearGradient id="linear-gradient" x1="151.14" y1="-113.32" x2="215.11" y2="-49.35" gradientTransform="matrix(1, 0, 0, -1, 0, 102)" gradientUnits="userSpaceOnUse"><stop offset="0.01" stop-color="#f8c73f"/><stop offset="1" stop-color="#fada7e"/></linearGradient><linearGradient id="linear-gradient-2" x1="-144.52" y1="-20.98" x2="122.77" y2="246.31" gradientTransform="matrix(1, 0, 0, -1, 199.88, 301.66)" gradientUnits="userSpaceOnUse"><stop offset="0.01" stop-color="#62c6be"/><stop offset="1" stop-color="#82cfc9"/></linearGradient><linearGradient id="linear-gradient-3" x1="-112.7" y1="10.84" x2="90.95" y2="214.49" gradientTransform="matrix(1, 0, 0, -1, 199.88, 301.66)" gradientUnits="userSpaceOnUse"><stop offset="0.01" stop-color="#dbdce3"/><stop offset="1" stop-color="#ededf0"/></linearGradient><linearGradient id="linear-gradient-4" x1="-71.45" y1="65.69" x2="49.69" y2="186.83" gradientTransform="matrix(1, 0, 0, -1, 0, 102)" gradientUnits="userSpaceOnUse"><stop offset="0" stop-color="#d4676a"/><stop offset="1" stop-color="#dd888b"/></linearGradient><linearGradient id="linear-gradient-5" x1="-39.16" y1="100.38" x2="17.41" y2="156.95" xlink:href="#linear-gradient-3"/></defs><g id="_02-search" data-name=" 02-search"><g id="gradient"><path class="cls-1" d="M299.64,245.15a24.1,24.1,0,0,0-8-17.23L119.25,74.24a12,12,0,0,0-16.47.47L74.5,103A12,12,0,0,0,74,119.46L227.71,291.84a24.09,24.09,0,0,0,17.23,8h.67a24.08,24.08,0,0,0,17-7l30-30a24.1,24.1,0,0,0,7-17.66Z" transform="translate(199.88 199.66)"/><circle class="cls-2" cx="189" cy="189" r="189"/><circle class="cls-3" cx="189" cy="189" r="144"/><path class="cls-4" d="M-10.88-110.66a84.1,84.1,0,0,0-84,84c0,23,13.15,49.21,39.08,78A322.84,322.84,0,0,0-18.24,86.81a12,12,0,0,0,14.73,0A323.55,323.55,0,0,0,34,51.36C60,22.55,73.12-3.7,73.12-26.66A84.09,84.09,0,0,0-10.88-110.66Z" transform="translate(199.88 199.66)"/><circle class="cls-5" cx="189" cy="173" r="40"/></g></g></svg>