<svg id="Capa_1" data-name="Capa 1" xmlns="http://www.w3.org/2000/svg" xmlns:xlink="http://www.w3.org/1999/xlink" viewBox="0 0 512 512"><defs><style>.cls-1{fill:url(#linear-gradient);}.cls-2{fill:url(#linear-gradient-2);}</style><linearGradient id="linear-gradient" x1="256" x2="256" y2="512" gradientTransform="matrix(1, 0, 0, -1, 0, 512)" gradientUnits="userSpaceOnUse"><stop offset="0" stop-color="#5558ff"/><stop offset="1" stop-color="#00c0ff"/></linearGradient><linearGradient id="linear-gradient-2" x1="256" y1="60" x2="256" y2="421" gradientTransform="matrix(1, 0, 0, -1, 0, 512)" gradientUnits="userSpaceOnUse"><stop offset="0" stop-color="#addcff"/><stop offset="0.5" stop-color="#eaf6ff"/><stop offset="1" stop-color="#eaf6ff"/></linearGradient></defs><circle class="cls-1" cx="256" cy="256" r="256"/><path class="cls-2" d="M331,166a75,75,0,1,0-75,75A75.09,75.09,0,0,0,331,166Zm-75,75c-74.44,0-135,60.56-135,135v14.06a15,15,0,0,0,5,11.17C162.53,434,208.7,452,256,452s93.47-18,130-50.77a15,15,0,0,0,5-11.17V376C391,301.56,330.44,241,256,241Z"/></svg>