<svg id="Layer_1" data-name="Layer 1" xmlns="http://www.w3.org/2000/svg" viewBox="0 0 490 512"><defs><style>.cls-1{fill:#4fabf7;}.cls-2{fill:#f9ba8f;}.cls-3{fill:#fcad6d;}.cls-4{fill:#fd995b;}.cls-5{fill:#2a428c;}.cls-6{fill:#142766;}.cls-7{fill:#3c58a0;}.cls-8{fill:#e9efff;}.cls-9{fill:#bec8f7;}.cls-10{fill:#1c2e7a;}.cls-11{fill:#ea349c;}.cls-12{fill:#e21a96;}.cls-13{fill:#f964b2;}.cls-14{fill:#fc90ce;}.cls-15{fill:#73c3f9;}</style></defs><path class="cls-1" d="M424.32,445A244.34,244.34,0,0,0,501,267C501,131.69,391.31,22,256,22S11,131.69,11,267,120.69,512,256,512a246.85,246.85,0,0,0,31.3-2Z" transform="translate(-11 0)"/><path class="cls-2" d="M396.84,365.56a70.45,70.45,0,0,1-2.24-24.27l4-37.69C400.55,280,397,256.27,386.48,235c-27.05-55-20.84-59-21.68-113.6a20.2,20.2,0,1,0-40.39,0c0,222,.41,205.74-1,212.25v29.07A44.48,44.48,0,0,1,279,407.12H168.47a156.9,156.9,0,0,0,67.19,53.31l.5.21c20.83,8.8,44.09,26.36,48,48.14l.37,1.56A244.09,244.09,0,0,0,426.37,443Z" transform="translate(-11 0)"/><path class="cls-2" d="M93.46,101.88l-6.15-5.7a23.5,23.5,0,0,0-31.95,34.48L93.46,166Z" transform="translate(-11 0)"/><path class="cls-3" d="M67.86,113a23.54,23.54,0,0,1-7.27-20.44,23.21,23.21,0,0,0-6.49,4.89,23.56,23.56,0,0,0,1.26,33.21L93.46,166V136.72Z" transform="translate(-11 0)"/><path class="cls-4" d="M398.68,370.39a119,119,0,0,1-147.6,97.92c15.84,9.69,30.09,23.85,33.06,40.47l.37,1.56A244.09,244.09,0,0,0,426.37,443Z" transform="translate(-11 0)"/><path class="cls-5" d="M289.61,408.08H127.38a34.83,34.83,0,0,1-34.79-34.8V34.79A34.83,34.83,0,0,1,127.38,0H289.61a34.84,34.84,0,0,1,34.8,34.79V373.28a34.83,34.83,0,0,1-34.8,34.79Z" transform="translate(-11 0)"/><path class="cls-6" d="M127.38,0A34.83,34.83,0,0,0,92.59,34.79V373.28a34.83,34.83,0,0,0,34.79,34.79h48.36c-10.73-10.95,1.79-21.64,1.79-21.64-17.67-4.64-16.17-23.2-16.17-23.2V61.73c0-17.75,18-22.23,18-22.23-7.1-7.11,0-14.57,0-14.57v-12C172.84,8.75,174.13,3.1,175.56,0Z" transform="translate(-11 0)"/><path class="cls-7" d="M182.87,24.93h-3.48a6,6,0,1,1,0-12h3.48a6,6,0,0,1,0,12Z" transform="translate(-11 0)"/><path class="cls-7" d="M236.77,24.93H203.39a6,6,0,1,1,0-12h33.38a6,6,0,0,1,0,12Z" transform="translate(-11 0)"/><path class="cls-8" d="M289.61,21.65H265.23A8.23,8.23,0,0,0,257,29.88a9.65,9.65,0,0,1-9.62,9.62H169.61A9.65,9.65,0,0,1,160,29.88a8.22,8.22,0,0,0-8.23-8.23H127.38a13.14,13.14,0,0,0-13.15,13.14V373.28a13.15,13.15,0,0,0,13.15,13.15H289.61a13.15,13.15,0,0,0,13.15-13.15V34.79A13.14,13.14,0,0,0,289.61,21.65Z" transform="translate(-11 0)"/><path class="cls-9" d="M193.85,386.43v-304c-28.76-10.75-14.46-42.87-14.46-42.88h-9.78A9.65,9.65,0,0,1,160,29.88a8.22,8.22,0,0,0-8.23-8.23H127.38a13.14,13.14,0,0,0-13.15,13.14V373.28a13.15,13.15,0,0,0,13.15,13.15Z" transform="translate(-11 0)"/><path class="cls-5" d="M259.21,170.07A109.66,109.66,0,0,1,258,188c-3.34,14.7-8.15,27.51-14.31,38.05a56.75,56.75,0,0,1-10.36,12.91l-.53.49v3.29a15.35,15.35,0,0,0,3.59,9.48A120.36,120.36,0,0,0,268.22,246a17,17,0,0,0,9.09-24.84c-13.12-21.74-11.16-51-11.16-51Z" transform="translate(-11 0)"/><path class="cls-10" d="M277.31,221.11a61.86,61.86,0,0,1-3.31-6.29c-15.27,8.86-21.37-3.69-21.37-3.69l-1.12-1.65A113,113,0,0,1,243.66,226a56.54,56.54,0,0,1-10.36,12.91l-.53.49v3.29a15.35,15.35,0,0,0,3.59,9.48A120,120,0,0,0,268.22,246,17,17,0,0,0,277.31,221.11Z" transform="translate(-11 0)"/><path class="cls-10" d="M148.8,246a120,120,0,0,0,31.86,6.24,15.35,15.35,0,0,0,3.59-9.48v-4l-.5-.48A56.8,56.8,0,0,1,174.19,226c-6.17-10.55-11-23.35-14.31-38a102.1,102.1,0,0,1-1.25-17.91h-7.75s2,29.3-11.17,51A17.05,17.05,0,0,0,148.8,246Z" transform="translate(-11 0)"/><path class="cls-3" d="M156.83,268.25a85.06,85.06,0,0,0,40.07,35.22,30.37,30.37,0,0,0,24,0A85,85,0,0,0,261,268.25c.35-.6.69-1.21,1-1.82-14.35-5.53-27.66-13.4-27.66-23.68v-4.86c-6.27,5.62-17,12.76-25.9,13-8.87-.22-19.63-7.36-25.91-13,0,6.7,1.78,14.75-19.25,25-2.43,1.18-5,2.29-7.69,3.33.39.69.78,1.39,1.18,2.07Z" transform="translate(-11 0)"/><path class="cls-4" d="M210.1,250.75c-.54.06-1.08.1-1.6.12-8.87-.22-19.63-7.37-25.91-13,0,6.69,1.78,14.75-19.25,25-2.43,1.18-5,2.29-7.69,3.33.39.69.78,1.39,1.18,2.07A84,84,0,0,0,180.17,294a111.43,111.43,0,0,0,15.94-10.32c11.39-8.93,13.9-22.76,14-32.88Z" transform="translate(-11 0)"/><path class="cls-11" d="M127.38,386.43H289.61a13.15,13.15,0,0,0,13.15-13.15V277.84a49.13,49.13,0,0,0-5.88-1.54c-2-.52-20.6-4.06-37-10.73-.48.85-1,1.7-1.45,2.54a80.77,80.77,0,0,1-38.08,33.47,28.83,28.83,0,0,1-22.86,0,80.74,80.74,0,0,1-38.09-33.47q-.81-1.38-1.59-2.79c-16.82,6.93-37.6,11-37.68,11a47.14,47.14,0,0,0-5.89,1.53v95.44a13.15,13.15,0,0,0,13.15,13.15Z" transform="translate(-11 0)"/><path class="cls-12" d="M177.53,386.43c-11.46-1.83-11.67-10.55-11.67-10.55v-61.5c0-13.64,5.57-15.51,16.21-21.49a79.69,79.69,0,0,1-22.68-24.79c-.54-.91-1.07-1.84-1.59-2.78-16.82,6.93-37.6,11-37.68,11a49.23,49.23,0,0,0-5.89,1.54v95.44a13.15,13.15,0,0,0,13.15,13.15Z" transform="translate(-11 0)"/><path class="cls-13" d="M270.81,309.75H146.19a19.36,19.36,0,1,0,0,38.71H270.81a19.36,19.36,0,0,0,0-38.71Z" transform="translate(-11 0)"/><circle class="cls-8" cx="197.91" cy="329.11" r="32.85"/><circle class="cls-14" cx="142.63" cy="329.11" r="10.2"/><circle class="cls-14" cx="253.18" cy="329.11" r="10.2"/><path class="cls-2" d="M127.67,225.84A20.59,20.59,0,0,1,98.57,227l-34.5-32a20.6,20.6,0,0,1,28-30.22l34.5,32A20.59,20.59,0,0,1,127.67,225.84Z" transform="translate(-11 0)"/><path class="cls-3" d="M112.76,212.42l-34.5-32a20.6,20.6,0,0,1-5.92-20.34A20.56,20.56,0,0,0,64.07,195l34.5,32a20.59,20.59,0,0,0,33.91-9.87,20.57,20.57,0,0,1-19.72-4.66Z" transform="translate(-11 0)"/><path class="cls-2" d="M127.67,338.19a20.59,20.59,0,0,1-29.1,1.11l-34.5-32a20.6,20.6,0,0,1,28-30.22l34.5,32A20.59,20.59,0,0,1,127.67,338.19Z" transform="translate(-11 0)"/><path class="cls-3" d="M112.76,324.77l-34.5-32a20.6,20.6,0,0,1-5.92-20.34,20.56,20.56,0,0,0-8.27,34.87l34.5,32a20.59,20.59,0,0,0,33.91-9.88A20.54,20.54,0,0,1,112.76,324.77Z" transform="translate(-11 0)"/><path class="cls-2" d="M127.67,282a20.59,20.59,0,0,1-29.1,1.11l-34.5-32a20.59,20.59,0,0,1,28-30.21l34.5,32A20.6,20.6,0,0,1,127.67,282Z" transform="translate(-11 0)"/><path class="cls-3" d="M112.76,268.6l-34.5-32a20.57,20.57,0,0,1-5.92-20.33,20.56,20.56,0,0,0-8.27,34.86l34.5,32a20.59,20.59,0,0,0,33.91-9.88A20.54,20.54,0,0,1,112.76,268.6Z" transform="translate(-11 0)"/><path class="cls-15" d="M422.07,86.89c-13.3,16.91-25.3,41.22-15.71,67.74,18,49.75,46.67,92,33.34,165.54-6.05,33.37,13.8,47.36,37.29,52.68a245.09,245.09,0,0,0-54.92-286Z" transform="translate(-11 0)"/><path class="cls-5" d="M238.54,85.65a67.29,67.29,0,0,0-59.24,0,51.25,51.25,0,0,0-27.81,45.53v23.46h0a14.07,14.07,0,0,1,7.65,2.11,15.65,15.65,0,0,1,3-5.84,7.48,7.48,0,0,0,2-4.76c.2-6.77,2-22.78,13.91-28.9a7,7,0,0,1,9.25,2.83C194.47,132.54,211.23,149,248.5,142a4.39,4.39,0,0,1,5.21,4.16v0a7.53,7.53,0,0,0,2,4.76,15.65,15.65,0,0,1,3,5.84,14.09,14.09,0,0,1,7.65-2.11h0V131.18a51.25,51.25,0,0,0-27.81-45.53Z" transform="translate(-11 0)"/><path class="cls-10" d="M208.2,137.78c-18.47-35.29,16.24-57.27,16.24-57.27a68.46,68.46,0,0,0-15.52-1.72,63.73,63.73,0,0,0-29.62,6.86,51.25,51.25,0,0,0-27.81,45.53v23.46h0a14.07,14.07,0,0,1,7.65,2.11,15.65,15.65,0,0,1,3-5.84,7.53,7.53,0,0,0,2-4.76c.2-6.77,2-22.78,13.91-28.9a7,7,0,0,1,9.25,2.83,45.11,45.11,0,0,0,21.78,19.34l-.87-1.65Z" transform="translate(-11 0)"/><path class="cls-4" d="M158.67,188.21s-3.12-19.71.47-31.45c-3.25-2.17-9.54-3.23-12.37-.46-5.79,5.66-1.55,14.21.48,19.61a20.52,20.52,0,0,1,1.21,5c.39,3.65,2.37,9,10.58,8.86-.12-.52-.25-1-.37-1.57Z" transform="translate(-11 0)"/><path class="cls-3" d="M271.07,156.3c-2.83-2.77-9.11-1.71-12.37.46,3.59,11.74.47,31.45.47,31.45-.12.54-.24,1.06-.37,1.58,8.21.13,10.19-5.22,10.59-8.87a20.53,20.53,0,0,1,1.2-5c2-5.4,6.28-13.95.48-19.61Z" transform="translate(-11 0)"/><path class="cls-2" d="M254.12,146.15c0-.86-.08-1.9-.18-3.07a6.07,6.07,0,0,0-1.09-1.18,5.64,5.64,0,0,0-4.58-1.14c-35.53,6.67-52.2-7.9-59.92-21.29a8.38,8.38,0,0,0-6.45-4.16,20.89,20.89,0,0,0-6,2.74c-10.41,6.93-12,22-12.15,28.1a7.1,7.1,0,0,1-1.88,4.5c-6.52,7.35-5.09,28.82-3.57,37.65,3.37,14.87,8.25,27.84,14.5,38.55a59,59,0,0,0,27.81,24.43,21,21,0,0,0,16.68,0,59,59,0,0,0,27.81-24.43c6.25-10.7,11.13-23.67,14.51-38.57,1.46-9.29,3-30.2-3.58-37.63a7.1,7.1,0,0,1-1.88-4.5Z" transform="translate(-11 0)"/><path class="cls-3" d="M216.35,226.84c-6.25-10.7-11.13-23.67-14.5-38.54-1.52-8.83-2.95-30.3,3.57-37.65a7,7,0,0,0,1.88-4.5,56.06,56.06,0,0,1,.9-8.37,43.85,43.85,0,0,1-19.85-18.31,8.35,8.35,0,0,0-6.45-4.16,20.89,20.89,0,0,0-6,2.74c-10.41,6.93-12,22-12.15,28.1a7.1,7.1,0,0,1-1.88,4.5c-6.52,7.35-5.09,28.82-3.57,37.65,3.37,14.87,8.25,27.84,14.5,38.54a59,59,0,0,0,27.81,24.44,21,21,0,0,0,16.68,0,60.35,60.35,0,0,0,13.45-8,58.24,58.24,0,0,1-14.36-16.45Z" transform="translate(-11 0)"/><path class="cls-9" d="M224.5,358c-16.53-3.36-12.84-20-12.84-20s2.29-14.78-8.55-22c-8.47-5.65-5.85-14.55-4.31-18.15A32.86,32.86,0,1,0,224.5,358Z" transform="translate(-11 0)"/><path class="cls-11" d="M221.89,326,205,316.46a3.62,3.62,0,0,0-5.39,3.15v19a3.62,3.62,0,0,0,5.39,3.15l16.93-9.49a3.61,3.61,0,0,0,0-6.31Z" transform="translate(-11 0)"/><path class="cls-13" d="M218.3,323.93l-7.44-4.17a1.58,1.58,0,0,0-2.36,1.38v8.34a1.58,1.58,0,0,0,2.36,1.38l7.44-4.16A1.59,1.59,0,0,0,218.3,323.93Z" transform="translate(-11 0)"/></svg>